<svg xmlns="http://www.w3.org/2000/svg" width="64" height="64" viewBox="0 0 64 64">
  <g fill="#555952" opacity=".065">
    <circle cx="3" cy="8" r=".45"/><circle cx="19" cy="3" r=".35"/>
    <circle cx="36" cy="12" r=".5"/><circle cx="57" cy="5" r=".4"/>
    <circle cx="11" cy="27" r=".4"/><circle cx="28" cy="20" r=".45"/>
    <circle cx="48" cy="29" r=".35"/><circle cx="61" cy="19" r=".5"/>
    <circle cx="5" cy="46" r=".35"/><circle cx="22" cy="39" r=".5"/>
    <circle cx="39" cy="48" r=".4"/><circle cx="56" cy="42" r=".45"/>
    <circle cx="15" cy="59" r=".5"/><circle cx="31" cy="55" r=".35"/>
    <circle cx="51" cy="61" r=".4"/>
  </g>
  <path d="M7 17h2m32-14h1m-24 29h2m15 3h2m23 20h2M8 54h1m34-16h2m-17 25h1" stroke="#555952" stroke-opacity=".035" stroke-width=".5"/>
</svg>
